# xmcd
# 
# Track frame offsets:
#     150
#     24397
#     46025
#     59437
#     80082
#     99585
#     125150
#     149442
#     169275
#     191675
#     211965
#     229655
# 
# Disc length: 3338
# 
# Revision: 4
# Processed by: cddbd v1.5.2PL0 Copyright (c) Steve Scherf et al.
# Submitted via: fre:ac v1.0.31
# 
DISCID=ab0d080c
DTITLE=Various Artist - The Blues For You
DYEAR=1990
DGENRE=Blues
TTITLE0=Muddy Waters - Mannish Boy
TTITLE1=The Electric Flag - Texas
TTITLE2=Fleetwood Mac - My Heart Beat Like A Hammer
TTITLE3=Omar And The Howlers - Down In Mississippi
TTITLE4=Johnny Winter - Everybody's Blues
TTITLE5=The Gary Moore Band - Boggie My Way Back Home
TTITLE6=Stevie Ray Vaughan Band - Texas Flood
TTITLE7=Mike Bloomfield, Al Kooper, Stephen Stills - Stop
TTITLE8=Jeff Beck Group - Tonight I'll Be Staying Here With You
TTITLE9=Taj Mahal - Dust My Broom
TTITLE10=The Fabulous Thunderbirds - How Do You Spell Love
TTITLE11=The Allman Brothers Band - "Let Me Ride"
EXTD=
EXTT0=
EXTT1=
EXTT2=
EXTT3=
EXTT4=
EXTT5=
EXTT6=
EXTT7=
EXTT8=
EXTT9=
EXTT10=
EXTT11=
PLAYORDER=
